<?xml version="1.0" standalone="no"?>
<!DOCTYPE svg PUBLIC "-//W3C//DTD SVG 20010904//EN"
 "http://www.w3.org/TR/2001/REC-SVG-20010904/DTD/svg10.dtd">
<svg version="1.0" xmlns="http://www.w3.org/2000/svg"
 width="1280.000000pt" height="1280.000000pt" viewBox="0 0 1280.000000 1280.000000"
 preserveAspectRatio="xMidYMid meet">

<g transform="translate(0.000000,1280.000000) scale(0.100000,-0.100000)"
fill="#000000" stroke="none">
<path d="M1993 11614 c-7 -3 -13 -12 -13 -20 0 -8 -10 -31 -23 -52 -13 -20
-30 -66 -37 -102 -7 -36 -19 -81 -26 -100 -17 -46 -24 -136 -29 -350 -4 -193
11 -350 44 -465 11 -38 20 -80 20 -93 1 -13 6 -33 13 -45 18 -33 38 -89 38
-112 0 -11 7 -29 15 -39 8 -11 15 -28 15 -38 0 -10 4 -18 9 -18 5 0 12 -13 16
-30 4 -16 11 -32 16 -35 5 -4 9 -13 9 -21 0 -8 11 -32 25 -52 14 -20 25 -43
25 -50 0 -7 11 -23 25 -36 14 -13 25 -28 25 -33 0 -5 11 -20 25 -33 40 -38 33
-70 -28 -132 -73 -73 -148 -175 -266 -363 -75 -118 -106 -178 -126 -245 -10
-30 -21 -59 -26 -64 -11 -12 -12 -189 -2 -200 11 -10 43 -118 43 -144 0 -12 4
-30 9 -40 5 -9 17 -44 27 -77 10 -33 22 -64 26 -69 4 -6 8 -16 8 -24 0 -18
123 -242 159 -292 33 -44 43 -57 59 -75 6 -7 12 -18 12 -23 0 -6 4 -12 9 -14
5 -1 37 -37 71 -78 78 -95 146 -158 235 -217 39 -26 72 -49 75 -53 3 -3 14
-10 25 -16 11 -6 21 -23 23 -37 3 -22 -3 -30 -34 -44 -46 -22 -92 -60 -164
-138 -30 -32 -67 -72 -82 -88 -16 -16 -28 -31 -28 -33 0 -2 -21 -35 -48 -72
-47 -67 -76 -122 -124 -237 -14 -33 -33 -77 -42 -98 -9 -21 -16 -46 -16 -56 0
-10 -10 -52 -23 -92 -13 -41 -29 -110 -36 -154 -7 -44 -19 -96 -26 -115 -8
-19 -21 -102 -30 -185 -9 -82 -21 -165 -27 -184 -12 -39 -23 -471 -12 -471 4
0 44 37 88 83 82 83 188 177 201 177 4 0 24 14 45 30 21 17 42 30 48 30 6 0
12 4 14 9 2 5 46 38 98 73 84 57 264 151 430 226 30 13 76 35 103 48 26 13 55
24 65 24 9 0 37 11 61 25 23 14 50 25 60 25 16 0 87 22 126 39 11 5 47 17 80
27 33 9 67 20 75 24 46 22 337 98 495 130 33 6 67 15 75 19 8 4 51 16 95 25
44 10 105 24 135 32 52 13 192 45 288 65 24 5 48 11 53 15 10 6 61 15 184 34
33 5 87 18 120 29 33 11 72 21 87 21 14 0 48 10 75 21 26 12 77 28 112 35 35
8 77 21 95 28 17 8 46 18 65 21 19 4 48 16 65 26 17 10 38 19 46 19 8 0 26 6
40 13 14 7 51 21 83 31 67 21 287 129 363 178 28 18 70 44 93 58 61 37 173
118 197 143 12 12 59 56 104 97 144 131 180 169 345 360 17 19 41 46 55 61 14
14 41 46 61 70 20 24 46 55 58 68 11 13 21 27 21 31 0 3 10 17 23 30 12 13 27
32 32 40 56 91 72 114 83 125 6 8 12 20 12 29 0 8 10 32 22 53 13 21 28 51 34
68 6 16 24 62 39 100 15 39 35 102 45 141 10 39 23 81 29 92 18 34 16 208 -3
237 -9 13 -16 31 -16 40 0 8 -4 23 -10 33 -5 9 -16 35 -25 57 -9 22 -23 52
-31 67 -8 14 -14 33 -14 42 0 9 -4 16 -10 16 -5 0 -10 7 -10 15 0 8 -4 15 -10
15 -5 0 -12 11 -16 25 -3 14 -10 25 -15 25 -5 0 -9 9 -9 19 0 11 -4 23 -10 26
-5 3 -17 23 -26 43 -10 20 -27 48 -39 62 -12 14 -37 50 -55 80 -19 30 -37 57
-40 60 -20 19 -60 82 -60 95 0 9 17 37 39 63 21 26 51 74 66 107 15 33 36 78
47 100 11 22 23 57 25 78 3 21 16 57 29 80 13 23 24 58 24 78 0 19 4 39 9 45
4 5 14 25 21 44 12 33 17 59 39 210 5 36 14 97 20 135 14 91 14 388 1 401 -6
6 -15 49 -20 95 -15 138 -20 162 -46 214 -14 28 -26 60 -27 72 -1 18 -9 22
-63 28 -64 7 -130 -1 -140 -16 -3 -5 -14 -9 -26 -9 -11 0 -34 -6 -51 -14 -18
-8 -53 -22 -79 -30 -26 -9 -56 -20 -65 -25 -10 -5 -36 -17 -58 -26 -88 -38
-236 -116 -313 -164 -45 -28 -84 -51 -86 -51 -2 0 -54 -34 -115 -75 -61 -41
-115 -75 -119 -75 -5 0 -19 -11 -32 -25 -13 -14 -28 -25 -34 -25 -6 0 -25 -13
-43 -28 -18 -15 -54 -43 -80 -62 -26 -19 -78 -64 -116 -100 -38 -36 -81 -71
-97 -79 -25 -12 -31 -12 -57 6 -15 11 -38 24 -50 27 -13 4 -23 12 -23 17 0 5
-9 9 -21 9 -28 0 -119 31 -119 40 0 4 -17 10 -37 13 -52 7 -71 12 -79 20 -4 4
-16 7 -26 7 -10 0 -18 4 -18 9 0 4 -26 11 -57 15 -71 8 -152 25 -176 38 -28
14 -341 21 -442 9 -139 -16 -218 -29 -248 -40 -16 -6 -41 -11 -56 -11 -15 0
-31 -3 -34 -6 -9 -9 -108 -43 -127 -44 -8 0 -37 -11 -64 -25 -27 -14 -57 -25
-67 -25 -10 0 -35 -11 -55 -25 -20 -14 -43 -25 -50 -25 -16 0 -74 33 -74 43 0
4 -4 7 -10 7 -5 0 -23 12 -39 28 -51 47 -75 67 -106 87 -16 10 -34 22 -40 27
-53 42 -78 60 -132 92 -34 21 -70 47 -79 57 -9 10 -21 19 -26 19 -5 0 -24 11
-42 25 -18 14 -38 25 -43 25 -6 0 -16 6 -22 14 -7 8 -26 22 -44 31 -18 9 -54
29 -82 45 -27 16 -66 36 -85 45 -19 9 -42 21 -50 26 -8 5 -22 12 -30 16 -8 4
-32 17 -52 30 -21 13 -44 23 -53 23 -8 0 -15 4 -15 8 0 4 -17 13 -37 19 -21 6
-96 32 -168 57 -71 25 -139 46 -150 46 -12 0 -25 4 -30 9 -12 12 -134 23 -152
15z m3747 -1165 c14 -9 44 -19 67 -23 51 -7 189 -71 263 -122 202 -138 403
-374 441 -519 4 -16 17 -61 28 -100 18 -62 20 -99 21 -315 0 -225 -2 -250 -21
-300 -11 -30 -23 -64 -27 -75 -12 -43 -104 -211 -144 -264 -39 -52 -126 -149
-156 -175 -7 -6 -25 -23 -39 -38 -15 -16 -30 -28 -35 -28 -5 0 -21 -11 -36
-25 -15 -14 -31 -25 -36 -25 -5 0 -24 -11 -42 -25 -18 -14 -37 -25 -42 -25 -5
0 -29 -11 -53 -23 -24 -13 -55 -26 -69 -30 -14 -3 -45 -13 -70 -23 -63 -24
-224 -53 -295 -54 -97 0 -331 51 -430 94 -16 8 -47 20 -67 27 -21 7 -38 17
-38 21 0 4 -5 8 -11 8 -17 0 -161 111 -209 161 -57 60 -120 135 -120 144 0 3
-9 16 -20 28 -12 12 -24 33 -27 47 -3 14 -9 27 -12 30 -11 9 -41 72 -41 86 0
8 -4 14 -8 14 -11 0 -42 72 -42 96 0 11 -5 25 -11 31 -15 15 -32 169 -33 293
-1 109 17 279 33 306 6 11 22 55 37 99 25 78 52 145 63 155 4 3 15 23 26 45
11 22 27 47 35 56 8 10 31 39 50 65 19 27 46 58 60 70 14 12 45 41 70 64 51
48 222 163 260 175 13 4 30 13 37 20 7 7 36 18 65 25 29 6 62 16 73 21 48 22
112 28 290 26 157 -2 194 -5 215 -18z m-2642 -861 c9 -9 12 -71 12 -219 0
-203 0 -207 25 -243 14 -20 25 -40 25 -44 0 -5 23 -31 50 -59 50 -51 142 -104
171 -99 54 9 86 32 107 79 23 53 9 127 -25 127 -5 0 -15 10 -23 21 -8 12 -22
28 -30 37 -24 25 -20 274 6 327 15 31 26 41 47 43 16 2 36 -3 45 -11 10 -7 33
-20 52 -27 19 -7 42 -19 51 -27 8 -7 19 -13 24 -13 11 0 108 -74 142 -108 43
-43 68 -75 110 -138 l38 -59 1 -205 c0 -112 -1 -212 -4 -222 -3 -11 -18 -20
-41 -23 -20 -3 -43 -10 -52 -15 -9 -4 -47 -16 -85 -25 -38 -10 -76 -23 -84
-30 -23 -19 -80 -27 -240 -32 -143 -4 -184 1 -255 32 -117 50 -163 82 -250
170 -81 83 -93 97 -120 151 -11 21 -26 45 -32 52 -7 7 -13 19 -13 25 0 10 -20
56 -61 139 -5 10 -9 27 -9 38 0 11 -7 23 -15 26 -8 4 -15 10 -15 15 0 11 -8
21 -58 74 -48 51 -41 73 33 109 33 16 82 39 108 52 27 13 57 24 67 24 10 0 34
7 53 15 20 8 54 15 75 15 21 0 42 3 46 8 9 8 74 29 97 31 8 1 20 -4 27 -11z
m1672 -1283 c65 -34 52 -87 -50 -193 -135 -141 -180 -230 -158 -307 12 -39 50
-108 73 -131 44 -45 198 -128 285 -154 74 -23 80 -54 21 -110 -82 -78 -213
-75 -328 8 -17 12 -35 22 -40 22 -4 0 -20 11 -35 25 -15 14 -33 25 -41 25 -8
0 -23 11 -33 25 -10 14 -24 25 -30 25 -6 0 -35 -22 -64 -50 -29 -27 -58 -50
-63 -50 -6 0 -24 -11 -41 -23 -17 -13 -49 -28 -71 -32 -48 -10 -148 -10 -193
0 -36 8 -112 75 -112 99 0 20 39 46 70 46 29 0 158 63 229 113 25 17 65 52 89
76 41 43 42 46 42 113 0 65 -2 72 -41 125 -23 31 -70 84 -105 119 -112 113
-137 170 -93 208 33 28 93 34 387 35 224 1 278 -2 302 -14z"/>
<path d="M5417 10144 c-3 -3 -32 -8 -64 -11 -101 -9 -253 -93 -358 -198 -38
-39 -75 -79 -82 -90 -19 -32 -64 -124 -65 -132 0 -4 -7 -17 -14 -28 -8 -11
-14 -29 -14 -41 0 -12 -4 -24 -8 -26 -17 -7 -42 -167 -42 -267 0 -96 20 -223
41 -263 5 -10 9 -22 9 -28 0 -6 11 -28 25 -50 14 -22 25 -45 25 -53 0 -51 271
-297 327 -297 5 0 34 -12 64 -27 53 -26 59 -26 232 -25 171 0 179 1 223 26 26
14 56 26 68 26 23 0 147 81 207 135 78 70 199 232 199 267 0 8 3 18 7 22 15
15 43 103 43 137 0 19 5 40 12 47 16 16 15 179 -1 195 -6 6 -11 31 -11 56 0
26 -7 55 -15 65 -8 11 -15 30 -15 42 0 13 -4 25 -9 28 -5 3 -12 21 -15 40 -4
19 -10 36 -14 38 -4 2 -16 21 -27 42 -21 42 -89 116 -107 116 -6 0 -8 7 -4 15
3 8 0 15 -6 15 -7 0 -22 10 -33 23 -11 13 -47 43 -80 67 -33 24 -62 47 -65 51
-3 4 -19 11 -35 15 -16 4 -44 16 -62 26 -17 11 -60 24 -95 29 -79 12 -233 21
-241 13z m309 -310 c22 -14 52 -45 67 -69 24 -37 27 -52 27 -124 0 -94 -13
-127 -71 -182 -77 -74 -173 -98 -242 -63 -77 40 -137 107 -137 152 0 9 -5 31
-12 49 -10 27 -10 38 0 53 7 11 12 27 12 35 0 9 7 38 16 65 13 40 25 56 62 80
43 28 51 30 142 30 86 0 100 -3 136 -26z m157 -539 c38 -18 79 -64 87 -99 17
-62 -33 -172 -91 -202 -16 -8 -51 -14 -80 -14 -48 0 -54 3 -90 42 -22 24 -39
50 -39 58 0 9 -5 21 -11 27 -15 15 -15 103 0 113 7 4 18 18 25 31 6 13 27 34
46 47 39 26 93 26 153 -3z"/>
<path d="M8450 10655 c-19 -7 -48 -14 -65 -14 -43 -2 -110 -23 -199 -65 -42
-20 -79 -36 -82 -36 -3 0 -20 -11 -38 -25 -18 -14 -40 -25 -48 -25 -9 0 -22
-7 -29 -16 -8 -9 -30 -27 -49 -39 -95 -61 -248 -247 -305 -370 -15 -33 -38
-82 -51 -110 -12 -27 -25 -68 -27 -90 -2 -22 -14 -73 -26 -112 -19 -66 -21
-97 -21 -338 0 -194 4 -281 14 -323 32 -128 36 -155 36 -225 0 -80 14 -199 36
-297 8 -36 14 -101 14 -145 0 -44 5 -111 11 -150 14 -90 14 -282 0 -365 -6
-36 -11 -107 -11 -158 0 -51 -4 -100 -9 -110 -16 -34 -41 -120 -41 -145 0 -14
-11 -47 -25 -73 -14 -26 -25 -54 -25 -64 0 -26 -109 -250 -121 -250 -5 0 -9
-6 -9 -12 -1 -18 -101 -150 -191 -250 -118 -133 -212 -222 -294 -278 -27 -19
-62 -44 -77 -55 -72 -55 -93 -71 -104 -82 -7 -7 -15 -13 -17 -13 -3 0 -32 -18
-65 -40 -33 -22 -65 -40 -71 -40 -7 0 -29 -11 -49 -25 -20 -14 -44 -25 -52
-25 -8 0 -32 -11 -52 -25 -20 -14 -44 -25 -52 -25 -8 0 -59 -19 -113 -41 -54
-23 -114 -48 -133 -56 -19 -8 -43 -18 -52 -23 -10 -6 -24 -10 -33 -10 -14 0
-26 -5 -127 -49 -26 -12 -51 -21 -55 -21 -5 0 -19 -6 -33 -13 -14 -7 -50 -21
-80 -32 -127 -42 -198 -69 -255 -95 -33 -16 -89 -41 -125 -55 -105 -44 -263
-115 -305 -138 -11 -6 -36 -19 -55 -29 -78 -40 -115 -73 -115 -103 0 -20 6
-30 20 -33 34 -9 356 -4 420 7 107 18 219 32 285 37 36 3 79 9 95 14 30 10 99
25 185 41 45 8 134 29 200 48 19 5 53 14 75 20 81 23 121 36 145 48 14 7 33
13 43 13 10 0 42 11 70 24 29 13 68 29 87 36 98 36 211 87 340 155 153 80 183
97 198 112 8 7 23 18 34 24 21 11 178 130 216 164 12 11 47 43 76 70 30 28 61
55 68 62 7 7 19 18 25 25 7 7 17 18 23 23 6 6 23 24 38 41 15 17 43 48 62 70
19 21 55 66 80 99 25 33 51 66 58 73 6 7 12 17 12 21 0 4 8 16 18 27 30 33 75
104 126 198 15 27 37 67 50 90 12 23 30 64 40 91 10 28 21 59 26 70 19 42 40
117 40 138 0 13 4 27 9 32 20 23 41 162 41 280 0 134 7 195 21 173 5 -7 9 62
9 159 0 128 -3 172 -12 175 -10 4 -15 57 -20 199 -6 190 -21 349 -35 379 -7
15 -14 89 -32 325 -5 72 -15 159 -21 195 -13 72 -9 203 10 295 6 33 13 71 14
85 9 79 45 175 107 279 42 71 222 211 271 211 14 0 49 7 78 16 75 22 241 8
335 -28 71 -28 144 -101 192 -193 25 -47 43 -159 32 -197 -5 -18 -9 -45 -9
-61 0 -38 -21 -67 -78 -108 -45 -33 -51 -34 -132 -33 -47 0 -109 2 -138 4 -38
2 -58 -2 -71 -14 -10 -9 -22 -16 -27 -16 -5 -1 -22 -17 -37 -38 -27 -35 -28
-40 -26 -153 1 -110 3 -119 25 -140 13 -12 24 -27 24 -33 0 -15 65 -67 123
-99 42 -24 59 -27 137 -27 53 0 90 4 90 10 0 6 15 10 34 10 39 0 141 44 225
98 96 60 213 191 277 308 27 51 72 205 78 268 6 72 -9 204 -25 220 -5 6 -9 22
-9 37 0 15 -6 40 -14 56 -8 15 -23 46 -33 68 -10 22 -23 45 -30 52 -6 7 -17
29 -24 48 -7 19 -16 35 -20 35 -4 0 -11 10 -14 21 -9 26 -194 209 -212 209 -7
0 -13 5 -13 10 0 6 -6 10 -14 10 -8 0 -16 6 -19 14 -10 26 -217 116 -269 116
-14 0 -39 7 -54 15 -38 20 -273 20 -324 0z"/>
<path d="M7079 8193 c-13 -35 -48 -110 -89 -193 -34 -67 -94 -154 -159 -229
-12 -13 -21 -27 -21 -31 0 -4 -15 -23 -32 -42 -18 -19 -46 -52 -63 -74 -45
-59 -275 -284 -291 -284 -8 0 -14 -4 -14 -9 0 -4 -17 -20 -37 -33 -21 -14 -51
-37 -68 -52 -16 -14 -61 -47 -100 -74 -38 -26 -71 -50 -73 -54 -2 -5 -9 -8
-14 -8 -6 0 -45 -22 -87 -48 -42 -27 -83 -51 -91 -55 -8 -4 -31 -17 -50 -29
-52 -31 -175 -91 -255 -122 -38 -16 -89 -37 -112 -47 -23 -11 -64 -25 -92 -32
-28 -6 -51 -15 -51 -19 0 -5 -6 -8 -14 -8 -7 0 -27 -7 -42 -15 -16 -8 -39 -15
-51 -15 -13 0 -23 -4 -23 -10 0 -5 -8 -10 -19 -10 -10 0 -32 -7 -47 -15 -16
-8 -43 -15 -60 -15 -16 0 -34 -4 -40 -9 -11 -10 -131 -41 -162 -41 -11 0 -23
-4 -27 -10 -3 -5 -33 -12 -66 -16 -32 -4 -62 -11 -65 -15 -3 -5 -18 -9 -33 -9
-16 0 -45 -7 -64 -15 -20 -8 -53 -15 -74 -15 -21 0 -63 -9 -93 -21 -64 -24
-62 -24 -160 -40 -41 -7 -84 -17 -95 -23 -19 -9 -66 -18 -180 -32 -27 -4 -55
-10 -60 -15 -6 -4 -35 -12 -65 -17 -30 -6 -89 -19 -130 -31 -41 -11 -87 -21
-101 -21 -23 0 -63 -14 -111 -41 -10 -5 -32 -9 -48 -9 -17 0 -51 -11 -76 -25
-25 -14 -53 -25 -64 -25 -10 0 -29 -4 -42 -9 -13 -4 -50 -16 -83 -25 -73 -21
-155 -46 -175 -53 -48 -18 -178 -65 -192 -70 -10 -3 -18 -9 -18 -14 0 -5 -7
-9 -16 -9 -14 0 -71 -27 -84 -40 -3 -3 -34 -20 -70 -38 -70 -36 -102 -54 -110
-63 -3 -3 -21 -15 -40 -26 -19 -12 -44 -30 -55 -41 -12 -10 -26 -21 -32 -23
-6 -2 -32 -23 -59 -46 -27 -23 -82 -69 -121 -103 -40 -34 -73 -68 -73 -76 0
-26 173 -19 264 11 42 14 84 25 94 25 15 1 83 23 212 70 19 8 55 22 79 32 47
21 143 57 231 89 30 10 64 23 75 28 11 4 45 16 75 26 30 10 59 22 65 26 5 5
18 9 28 9 10 0 35 7 55 16 68 29 77 32 120 38 24 4 61 15 81 26 21 10 62 22
92 26 30 4 72 17 95 29 27 14 62 22 104 24 35 1 71 6 81 12 10 5 30 9 44 9 14
0 35 5 46 10 10 6 45 13 76 16 32 3 63 9 68 13 6 4 66 15 135 25 69 9 139 21
155 26 33 10 111 20 195 26 123 8 147 12 178 28 32 17 46 20 142 31 30 4 66
11 80 16 14 5 50 14 80 20 90 16 133 26 165 37 17 6 50 17 75 24 25 7 56 18
70 25 14 7 36 13 50 13 14 0 48 12 75 25 28 14 61 25 74 25 13 0 44 11 70 23
101 52 220 107 230 107 5 0 11 3 13 8 2 4 35 23 73 42 64 31 153 82 239 135
46 28 218 168 294 240 66 62 212 228 212 241 0 4 10 21 23 38 12 17 31 48 42
69 11 20 23 37 27 37 5 0 8 6 8 12 0 7 12 38 26 68 97 203 141 386 151 628 3
76 1 112 -7 112 -6 0 -15 -12 -21 -27z"/>
<path d="M8428 6994 c-9 -9 -10 -149 -2 -181 6 -22 11 -23 119 -23 90 0 115
-3 126 -16 24 -29 32 -118 36 -411 3 -251 6 -293 19 -304 23 -19 156 -18 178
1 16 12 17 34 12 214 -3 111 -8 261 -12 335 -4 89 -2 137 5 144 11 11 85 24
201 36 l65 6 3 98 3 97 -323 0 c-178 0 -345 3 -373 6 -27 3 -53 3 -57 -2z"/>
<path d="M9560 6520 c0 -552 -11 -500 109 -500 85 0 79 -13 83 192 2 116 6
151 18 163 20 20 84 29 190 28 99 0 165 -16 175 -41 4 -9 10 -84 13 -167 2
-82 9 -156 14 -162 7 -8 37 -13 82 -13 126 0 113 -38 114 342 1 181 -3 339 -7
351 -6 15 -4 26 5 35 18 16 18 33 0 26 -14 -5 -26 71 -26 172 l0 54 -77 -2
-78 -3 -5 -181 c-6 -207 -13 -227 -77 -237 -21 -4 -99 -7 -174 -7 -118 0 -138
2 -152 18 -13 14 -17 55 -23 215 l-7 197 -89 0 -88 0 0 -480z"/>
<path d="M10808 6528 c2 -323 6 -476 14 -485 8 -10 79 -13 334 -13 l324 0 0
73 c0 114 10 110 -220 96 l-194 -11 -23 27 c-18 21 -23 38 -23 85 0 55 2 60
32 81 30 22 44 23 207 27 97 2 181 5 187 7 15 4 9 136 -6 145 -7 4 -97 9 -201
12 -114 3 -194 9 -202 16 -9 8 -13 39 -12 104 l0 93 50 13 c31 8 115 13 220
13 105 0 174 4 182 11 9 7 13 38 13 94 l0 84 -342 0 -343 0 3 -472z"/>
<path d="M1883 4754 c-8 -4 -3 -23 18 -62 51 -100 110 -233 112 -253 1 -10 5
-19 9 -19 4 0 8 -7 8 -16 0 -9 7 -30 16 -47 30 -58 34 -67 34 -81 0 -7 7 -19
15 -26 8 -7 15 -23 15 -35 0 -13 11 -43 25 -66 14 -24 25 -52 25 -62 0 -9 11
-35 25 -57 14 -22 25 -45 25 -52 0 -7 11 -35 25 -63 13 -27 25 -55 25 -61 0
-6 11 -32 25 -58 14 -26 25 -51 25 -56 0 -5 11 -33 24 -62 24 -55 43 -101 71
-178 9 -25 27 -67 40 -95 13 -27 34 -75 48 -105 14 -30 35 -77 47 -105 38 -84
71 -176 95 -260 l22 -80 118 -1 c132 0 147 6 160 73 8 44 54 156 130 316 14
29 25 58 25 65 0 6 11 33 24 59 14 27 33 66 43 88 10 22 21 42 26 43 4 2 7 15
7 29 0 14 6 37 14 51 7 15 19 41 26 57 20 50 42 99 51 117 5 10 9 25 9 34 0 9
6 28 14 42 8 15 26 59 42 97 15 39 40 97 54 130 15 33 33 76 40 95 7 19 17 39
22 44 4 6 8 16 8 24 0 7 11 37 24 65 14 29 28 66 32 82 4 17 18 53 31 82 12
28 23 55 23 60 0 4 12 33 27 63 14 30 29 62 33 70 4 8 19 36 33 62 l26 47
-205 3 c-113 2 -212 -1 -220 -5 -9 -5 -14 -24 -14 -52 0 -25 -4 -45 -8 -45 -5
0 -17 -26 -27 -57 -10 -32 -29 -86 -41 -121 -13 -34 -24 -69 -24 -76 0 -8 -8
-29 -17 -48 -30 -60 -33 -68 -33 -82 0 -8 -18 -59 -40 -114 -22 -54 -40 -106
-40 -113 0 -8 -12 -36 -25 -64 -14 -27 -25 -56 -25 -63 0 -6 -11 -34 -24 -61
-13 -27 -27 -67 -31 -87 -3 -21 -15 -54 -24 -74 -10 -19 -21 -51 -24 -71 -3
-19 -14 -55 -25 -80 -10 -24 -24 -56 -30 -71 -20 -50 -50 -35 -76 37 -10 28
-24 64 -32 82 -8 17 -14 36 -14 42 0 6 -4 19 -9 29 -14 28 -33 85 -38 115 -3
15 -9 27 -14 27 -5 0 -9 13 -9 28 0 16 -7 37 -15 48 -8 10 -15 29 -15 41 0 12
-4 25 -10 28 -5 3 -10 14 -10 23 0 9 -7 30 -15 46 -8 15 -15 35 -15 42 0 8 -4
14 -9 14 -4 0 -11 20 -14 45 -4 24 -11 53 -16 62 -21 40 -41 92 -41 106 0 9
-4 19 -10 22 -5 3 -10 13 -10 21 0 9 -7 22 -15 30 -8 9 -15 29 -15 45 0 16 -4
29 -8 29 -10 0 -42 87 -42 113 0 9 -4 17 -9 17 -5 0 -12 13 -16 30 -4 16 -11
32 -16 35 -5 4 -9 22 -9 41 0 19 -4 34 -10 34 -5 0 -10 11 -10 24 0 18 -7 25
-27 29 -36 7 -374 7 -390 1z"/>
<path d="M4054 4724 c-3 -13 -3 -61 1 -106 5 -46 9 -456 10 -911 l2 -828 177
-4 176 -5 0 941 0 942 -32 -8 c-57 -12 -241 -17 -286 -7 -40 9 -42 9 -48 -14z"/>
<path d="M6699 4745 c-3 -2 -3 -24 0 -47 3 -24 4 -73 1 -109 -3 -37 -5 -437
-5 -890 l0 -824 179 0 178 0 -2 230 c-1 127 -3 246 -5 265 -11 115 -4 1065 10
1283 5 69 4 77 -12 78 -10 0 -77 2 -149 4 -72 1 -144 6 -160 9 -17 4 -32 4
-35 1z"/>
<path d="M8358 4745 c-3 -3 -44 -9 -90 -12 -56 -3 -99 -12 -133 -27 -183 -83
-263 -134 -356 -225 -71 -70 -169 -201 -169 -226 0 -8 -4 -15 -8 -15 -7 0 -23
-32 -51 -105 -5 -11 -16 -37 -25 -58 -9 -21 -16 -61 -16 -90 0 -29 -5 -68 -10
-87 -20 -65 -22 -145 -6 -214 9 -37 16 -82 16 -99 0 -17 12 -57 26 -87 14 -30
38 -80 52 -110 39 -81 125 -196 201 -267 36 -35 69 -63 73 -63 10 0 102 -63
106 -72 2 -5 12 -8 21 -8 10 0 35 -11 55 -25 20 -14 43 -25 50 -25 21 0 111
-32 117 -42 4 -6 98 -10 215 -10 201 -1 212 1 294 27 47 15 104 36 127 46 24
11 46 19 50 19 3 0 38 21 77 48 70 47 159 129 206 191 14 18 31 39 38 46 6 8
12 18 12 24 0 5 6 16 13 23 6 7 25 40 40 73 16 33 32 67 36 75 10 20 37 136
55 239 13 75 13 95 0 185 -26 166 -35 210 -50 239 -8 16 -14 37 -14 47 0 10
-7 20 -15 24 -8 3 -15 15 -15 26 0 11 -4 20 -8 20 -5 0 -17 18 -27 40 -10 22
-22 40 -27 40 -4 0 -8 5 -8 11 0 24 -154 187 -216 229 -20 14 -47 35 -61 48
-13 12 -28 22 -33 22 -5 0 -31 13 -57 29 -27 16 -66 34 -88 41 -22 7 -46 17
-53 23 -20 16 -331 45 -344 32z m232 -376 c103 -23 227 -109 302 -209 43 -58
101 -172 111 -220 14 -66 20 -229 9 -243 -5 -7 -12 -31 -16 -55 -3 -24 -10
-51 -15 -60 -5 -9 -17 -35 -27 -57 -16 -34 -39 -69 -72 -110 -32 -39 -125
-111 -168 -131 -29 -13 -56 -29 -59 -34 -3 -6 -18 -10 -33 -10 -15 0 -52 -9
-83 -19 -32 -11 -82 -22 -114 -26 -54 -7 -89 1 -157 36 -10 5 -29 9 -42 9 -14
0 -27 4 -31 9 -3 6 -30 22 -60 36 -128 63 -240 203 -260 326 -4 24 -10 53 -13
64 -10 34 -6 207 7 270 15 76 81 212 126 258 67 69 179 135 275 162 55 15 259
18 320 4z"/>
<path d="M8330 3912 c-35 -24 -68 -61 -87 -101 -14 -28 -14 -36 -3 -55 7 -11
21 -34 29 -49 25 -45 94 -115 123 -126 30 -11 68 -8 110 8 52 20 138 124 138
167 0 40 -90 153 -122 154 -9 0 -20 5 -23 10 -11 17 -137 11 -165 -8z"/>
<path d="M9838 4583 c2 -93 7 -206 11 -253 5 -47 8 -390 8 -762 -1 -372 1
-680 4 -683 3 -3 81 -6 172 -8 138 -2 168 0 172 13 3 8 5 270 4 582 -1 312 0
571 4 574 12 12 36 -5 60 -43 14 -22 40 -54 58 -74 19 -19 67 -73 107 -121 39
-48 77 -90 82 -93 6 -4 29 -32 52 -63 23 -31 55 -70 71 -87 15 -16 37 -39 48
-50 10 -12 19 -24 19 -29 0 -4 18 -26 41 -49 23 -23 62 -66 88 -96 77 -89 242
-250 343 -336 40 -33 107 -75 120 -75 7 0 33 -11 57 -25 23 -14 56 -25 72 -25
l29 0 0 68 c1 235 9 445 19 492 8 39 11 236 10 665 -1 336 -4 618 -6 628 -4
15 -22 17 -195 17 l-190 0 6 -427 c3 -236 7 -448 9 -473 3 -48 -7 -190 -18
-240 -9 -42 -34 -38 -73 14 -18 24 -54 66 -80 92 -26 27 -61 67 -77 89 -16 22
-41 52 -55 66 -36 37 -70 82 -70 92 0 4 -12 20 -27 35 -37 38 -73 84 -73 95 0
5 -22 31 -50 57 -27 26 -50 52 -50 56 0 5 -29 39 -65 76 -36 36 -65 71 -65 78
0 6 -4 8 -10 5 -5 -3 -10 0 -10 7 0 7 -25 40 -55 72 -30 33 -55 63 -55 68 0 4
-4 8 -8 8 -5 0 -24 22 -43 50 -19 27 -37 50 -41 50 -5 0 -8 6 -8 13 0 6 -18
32 -40 57 -22 25 -40 48 -40 53 0 4 -60 7 -132 7 l-133 0 3 -167z"/>
<path d="M5415 4730 c-49 -3 -99 -11 -110 -18 -11 -6 -50 -25 -87 -41 -61 -27
-122 -77 -168 -138 -24 -32 -68 -124 -85 -180 -27 -87 -7 -295 35 -364 8 -13
23 -40 33 -60 19 -37 45 -68 90 -106 41 -34 159 -103 178 -103 10 0 20 -4 24
-9 3 -5 20 -13 37 -17 18 -3 39 -10 48 -14 20 -10 102 -35 165 -50 104 -25
197 -65 234 -100 50 -48 69 -106 51 -161 -18 -54 -72 -111 -142 -148 -51 -28
-66 -31 -142 -31 -80 0 -111 7 -178 41 -10 5 -28 9 -40 9 -13 0 -43 11 -67 25
-23 14 -50 25 -58 25 -8 0 -29 11 -47 25 -18 14 -38 25 -45 25 -6 0 -21 11
-33 25 -25 29 -46 32 -55 8 -4 -9 -14 -24 -22 -34 -56 -63 -163 -221 -154
-229 9 -9 154 -94 243 -142 30 -17 78 -37 105 -45 28 -8 61 -22 75 -31 21 -13
61 -16 245 -16 204 -1 223 1 265 20 25 12 61 25 80 29 19 4 48 18 63 31 16 13
33 24 38 24 14 0 119 104 119 117 0 6 3 13 8 15 15 6 66 125 78 183 28 129 13
296 -35 375 -11 19 -25 44 -30 55 -11 23 -52 61 -63 57 -5 -1 -8 4 -8 11 0 16
-137 87 -167 87 -10 0 -28 7 -39 15 -10 8 -27 15 -36 15 -10 0 -18 5 -18 10 0
6 -12 10 -26 10 -14 0 -49 11 -77 23 -29 13 -67 27 -84 30 -18 4 -52 16 -75
27 -23 11 -48 20 -55 20 -12 0 -79 29 -98 42 -89 65 -120 172 -67 232 11 12
21 28 24 36 3 9 31 28 61 43 48 23 68 27 146 27 49 0 100 -4 113 -9 13 -5 50
-18 83 -27 33 -10 75 -28 94 -41 19 -13 38 -23 43 -23 5 0 24 -11 42 -25 18
-14 37 -25 42 -25 8 1 30 33 87 125 6 11 14 22 18 25 3 3 15 21 27 40 12 19
33 48 47 64 33 38 32 44 -8 61 -19 8 -39 21 -47 29 -7 9 -22 16 -34 16 -19 0
-61 22 -76 40 -3 3 -27 11 -55 18 -27 7 -63 20 -80 29 -20 10 -66 17 -135 19
-58 3 -127 5 -155 7 -27 1 -90 0 -140 -3z"/>
</g>
</svg>
